<svg width="50" height="50" xmlns="http://www.w3.org/2000/svg"><g transform="matrix(.04422 0 0 .0442 -13.466 -13.457)"><circle fill="#0073ff" cx="869.8" cy="869.8" r="549.2"/><path fill="#82f50a" d="M377 843c-2.1 2.2-6 7.5-3.7 9.6 2.3 2.2 5.5 3.7 5.5 3.7l4.7-2.3 1.5-.2s1.5 1.2 1.5 1.9.1 22.8 1 23.8c1 1 12.1 18.2 15.3 19.3 3.6 1 13.7 3.9 14.9 3.2.3-2.5-4.3-5.2-3.6-9 .7-3.8 3.2-4.1 2.5-11.9-.7-7.8-3.3-10 0-12.5s7.1-7 11.3-6.9c2 .1 1.6 2.1 3.8 2.8 1.1.4 5.1 3 8.9.6 3.8-2.4 7.5-10.9 13.5-10.8 6 .1 4.8 8.3 5.9 10.3 1.1 2 5.1 7.2 4.5 12.1-.6 4.9 15.8 20.8 16.6 21.5.8.8 3 1.4 4.4 2.1 1.4.7 20.7 20.9 20.7 23 0 2.1-.8 9.5 4.5 13.6s12 5.1 15 4.8c3-.3 17.7-8.4 20.3-8.7 2.6-.3 6.3-1.6 8.4 1 2.1 2.6 3.3 4.4 3.8 6.9s2.2 6.9 6.7 7c4.5.1 6.8-.5 10.1-3.3 3.3-2.9 13.2-11.3 14.2-16.2.9-4.9-3.5-18.1-2.3-19.5 1.2-1.4 9.7-20.4 12.1-22.1 2.4-1.7 19.7-16.5 20.3-16.8.6-.3 1.3-.4 2-.4s2.5.4 3.1 1.3c.6.8 2.8 2.9 3.5 3.1.7.2 13.4.4 15.5-.4 2.1-.8 13.2-7.4 14-7.4.8 0 2.4-.4 2.7 1 .3 1.4-1.1 5.6 3.5 5.2 4.6-.4 7.9-7.7 13.1-7.2 1 .1 10.9 2.8 14.2 2.2 3.9-.8 6-2.8 6.7-4.7.8-1.9 4.4-5.5 10.2-14.5 0 0 2.2-1.2 3.9-.4 1.7.8 3.2 1.1 3.2 2.5s-1.4 7.2-1.2 8.7c.2 1.5-.1 6.2 4.1 8.8 4.2 2.6 14.4 6 15.8 7.1 1.4 1.1 4.5 3 5.3 3 .8.1 21 8.6 21.3 9 .3.4 1.9 3.2 2.4 4.4.5 1.1 7.8 19.3 8.2 20 .4.7.9 3 4.7 3.2 3.8.1 7.3.1 8.7-1 1.4-1.1 5.9-8.3 9.5-8.3 3.6 0 6.1.7 7.3 2.2 1.2 1.5 6 6.7 10 6.8 4.1.1 8.2-2.6 12.4-3 4.2-.4 10.8.1 14.3-2.7 3.5-2.8 6.7-7.1 5.4-9.6-1.4-2.5-7-10.5-9.2-11.9-2.2-1.4-11.4-2.9-11.8-6.3-.3-3.4 6.2-9 7.3-9.4 3.2-1.3 15.1.4 16.7 1 1.6.6 8.6 5 11.4 5 2.8 0 6.1 1.5 9.2-1.4 3.1-2.9 6.7-8.1 6-10.3-.7-2.2-7.8-12-6.7-15.5 1.1-3.5 5.2-5.5 5-8.7-.2-3.2-5.9-9.7-6.6-10.3-.7-.6-2.9-.9-4.2-1.5-1.3-.6-13.5-17.1-15.6-18.6-2.2-1.5-9.1-2.1-11.1-6-2-4-8-16.3-6.3-19 1.7-2.7 11-7.2 11-7.2s5.6.4 7.1-.8c1.5-1.3 4.8-2.8 4-5.8-.8-3-4.1-8.2-7.2-9.7-3.1-1.5-6.7-1-7.8-1.8-1.1-.8-12.2-15-12.2-15s7.9-21.1 8.1-22.5c.2-1.4.8-6 2.4-8 2.4-3 6.1-3.8 7.1-3.8 1.3 0 3.8 2.6 7.3 2.4 1.6-.1 1.3-4.4 2.8-9 1.5-4.6 1.7-18.8 1.7-18.8s15.4-9 16.6-9.3c1.3-.3 3.7-1.9 6.5 0s12.6 5.1 14.1 4.2c1.5-.9 4.6-2.4 5.7-2.5 2.2-.1 13.1 7.5 14.1 7.5s21.2-10.3 21.7-10.5c.5-.2 2.9-6.9 7.1-7 4.2-.1 6.3.1 6.4-.8.1-.9-3.6-6.3-4.7-6.9-1-.5-10.2-2.9-11.5-4-1.3-1.1.2-6.9-2.3-8.8-2.5-1.9-18.5-13.3-18.8-14.9-.3-1.6.9-5.8 1-7 .1-2.7-1.3-18.5-2.1-20.3-.9-1.8-4.9-10.2-4.6-10.8.3-.5 2.1-6.9 2.1-9.2 0-2.4 7-20.8 6.8-21.7-.2-.9-6.2-7.7-6-8.7.3-1 .3-2.1 1.3-2.8 1-.7 4.1-3 5.4-2.9 1.2.1 5.1 2.4 7.3 2 2.2-.4 6.3-.7 8.6-2.5s23.7-19.6 25.7-19.7c2-.1 4.5.2 7.7.5 6.3.7 23.8 5.2 24.9 5.2 1.1.1 14.7-4.9 15.6-4.9 1.8.1 22 3 23 3.6 1 .6 9.5 6.6 10.9 6.5 1.4-.1 13.7 1 16.4 1.8 2.8.9 20.7 8.9 22.6 10.1 1.9 1.3 21.4 14.7 22.9 15.1 1.5.4 1.4.7 3.5 1 2.6.4 8.5-.5 9.2 0 .8.5 7.8 7.9 8.4 7.8.6-.1 3 .4 3.7-1 .7-1.4 2.5-5.2 2.5-6.1 0-.9 2.1-10 2.1-10s-16.6-21-18.1-22.4c-1.6-1.4-6.7-5.7-9.9-6.8-4.9-1.6-11.4-2.7-14.1-5.6-2.8-2.9-7.5-15.8-9.4-16.9-1.9-1.1-12.4-7-13-8.2-.6-1.2-3.1-5.5-3.4-5.9-5.5-5.1-8.2-15-6.8-18.3.3-.6 4.8-5.1 5.5-5.3.8-.2 6.2-1 8.8-3 2.6-2 16-12.7 16.9-12.6 1 .1 3-.3 4 .6 1 .9 3.6 5.2 5.1 5.9 1.5.7 7.3.4 10.3-.6 1.7-.6 8.6-4.9 9.6-4.2 1 .7 1 5.8-1.2 5.8s-4.5.1-4.4 1.5c.1 1.3 1.8 2.9 6.2 4.6.8.3 11.5 3.6 14 2.3 1.2-.6 1.8-1.9 1.6-3.2-.3-3.1-1.9-7.9-.8-7.7 1.1.2 5.7 4.4 5.5 5.4-.2 1-1.5 4.8-.3 5.6 1.1.8 2.6 2.3 3.9 2.1 1.3-.1 5.7-.4 6.8.2 1.1.7 5.5 2.9 8.8 5.9 3.3 3 25.5 13.9 32.3 16.2 6.8 2.2 16.5 3.5 19 4s8.8 1.8 9.9-.2c1-2.1-3.3-4.2-6.1-5.1-1.3-.4-5.7-1.5-5.4-2.8.2-.6 5.4.6 6.4.9 1 .2 2.8.4 3.3-.7s-1.6-3.4-3.9-4.4c-1.3-.6-7.4-3.6-7.2-4.8 0-.8 5 .5 5.3-.7.3-1.4-3.1-4.7-4.5-5.8-1.4-1-9.9-5.4-9.9-5.4l.5-4.4-14.3-6.5s-22.2-11.4-23.8-11.6c-3.6-.4-9.8 3-12.8 3s-8.3-1.8-10.2-1.9c-1.9-.1-6.7.3-8.4-.6-1.7-.9-7.6-7.5-9.9-8.7-2.3-1.3-6.2-3-7.2-4.2-1-1.2-2.4-5.5-3.1-6.7-1.4-2.4-6.5-12.2-8.6-14.4-2.2-2.2-6-4.5-8.9-6-2.9-1.5-4.3-3.3-4.6-4.6-.9-3.5-2.9-8.9-3-9.9-.1-1 .2-1.8 1.1-2.4.9-.7 4.4-2.9 4.7-4.1.3-1.2-3.5-8.9-1.9-12.2l-13.9-31.6-214.3-18.9S815 345.4 812 346.9c-2.9 1.5-16.1 3.5-18.8 4.9-2.8 1.3-6.7 5.6-7.2 6.3-.5.7-2.2 2.4-4.6 3.2-3.8 1.3-8.8.1-8.9 2.8-.1 2.7 5.2 3.4 7.4 3.2 2.1-.1 8.1-.7 10.6-2.3 2.5-1.5 7.6-4.2 10.1-4.6 2.5-.4 22.4-1.8 24.1 1.5 0 1-1.1 1.8 1.6 2.8 2.7 1 14.7-.9 18.1-.3 4.8.7 39.7 6 39.7 6l12.1 18.3 11.8 46.1s-6.6.2-9.9 1.2c-3.3 1-13.6 6.4-15.7 7.3-2.1.9-3.5 1.6-5.9 1.7-2.4.1-10.9-.1-11.6-.4-.7-.3-2.3-1.2-1-2.5 1.3-1.3 2.9-2 2.8-2.7-.7-2.7-11.3-6.4-13.9-6.4-2.6 0-4.6.2-6.3 1-1.7.8-10.8 2.4-14.8 2.3-4.1-.1-6.1 2-6.5 3.5-.3 1.5-8.4 16.2-8.5 17.4-.2 2.2.2 6.2-.3 6.6-.5.4-19.5 11.2-25.4 8.3-1.3-.7-3.4-.9-7-1.5-1.8-.3-5.9 2.8-3.2 4.5 2.7 1.7 6.1 4.7 9.3 4.9 5.3.2 13.4-1.9 17.5-1.9s6.8 3.9 6.9 6.9c-.7 5.5-56.3 27.2-58.8 27.9-2.5.7-19.7 0-24 .4-2.1.2-27.4 7.9-29.4 9-2 1.2-13.6 9.8-14.9 10-1.3.1-5.7-1.7-9.4-.4-10.6 3.8-33.7.4-33.7.4s-15.6-8-19.1-8.4c-3.5-.4-7-.7-9.3.2-2.3.9-15.4 8.6-17.9 9.6-2.5 1-15.3 7.2-17.2 7.6-1.9.4-24.9 4.7-28.7 6-3.8 1.3-30.1 13.7-33 14.4-2.9.7-25.3 7.6-26.5 8.4-1.2.8-16.6 15.6-16.6 16.5 0 .9.8 8.3-1 9.7-1.8 1.4-39.6 27.4-40.2 28-.6.6-23.8 27-24.8 27.7-1 .7-41.2 21.2-42.9 22.1-1.6.8-34.1 78.7-34.1 78.7l8.5 38.4s13.1 20.4 26.2 18.2c-.4 0 11.4 31.5 9.3 33.6zm613.3 484.4c1.6-.2 3-2.3 3.2-3.7.2-1.4 5.7-.9 7.7-.9s1.1-2.7 2.1-4.3c1.1-1.6 2.7-2.8 2.8-4.8.1-2 1.1-3.9 1.1-5.7 0-1.8-1.8-3.2-4.3-4.5-2.5-1.2-5.7-.4-6.9 1.4-1.2 1.8-3.2 1.6-4.7 1.1s-5.3 0-6.6 0c-1.2 0-2-1.2-1.1-2.1.9-.9 2.5-3.9 1.6-4.9-.9-1-6.4-.6-9.4 0s-10.7 2.2-16.6 1.9c-5.9-.4-10-2-11.8-2.7-1.8-.7-3.4-2.1-5.6-2.3-2.2-.2-3.7 3.9-3.7 6.2 0 4.6 3.6 5.3 5.2 5.5 1.6.2 2.8 3 3.9 5s-.2 7-.2 7 8.5-.3 10.7 0c2.2.3 4.6 1.3 4.6 2.4 0 1.1-1.4 2-1.6 2.8-.2.9.4 3.6-1.1 3.4-1.4-.2-1.2-2-2.8-2.3-1.6-.4-3.2.4-4.1 1.2-.9.9-.5 4.8-.2 5.7.3.9 5 .4 6.1.4 1.1 0 1.4 2.5 2.3 2.7.9.2 3-.7 3.2-1.6.2-.9 1.6-1.1 3.2-2.3 1.6-1.2 2.8-1.2 2.8-1.2 0 3.2.7 5.5 2.4 8s.8 4.6 2.4 4.6c1.6 0 4.5-1.1 5.9-1.2 1.4-.1 2.5-1.2 3-2.8.5-1.6 3-3.4 4.6-3.9 1.6-.5.4-2.1-.9-3-1.2-.9-2.8-3.2-2.8-3.9 0-.7 4-1.1 5.6-1.2zm278.5-80.7c-1.1-.5-1.2-3.2-2.7-3.9-1.5-.7-6.6.4-8 1.1-1.4.7-6.1 5-7.5 5-1.4 0-3.4-2.8-3.4-4.1 0-1.2 1.4-4.1 1.4-5.9 0-1.8 1.8-10 2.8-11.4 1.1-1.4.5-3.2-2.1-3-2.6.2-5.2 2-5.7 3-.5 1.1-3.4 2.5-5.2 3.6-1.8 1.1-4.3 7.5-5.5 9.1-1.2 1.6-7.3 5.7-9.3 7.5-2 1.8-6.8 4.8-7.5 5.2-.7.4-3.6-1.8-3.6-3.2 0-1.4 1.8-4.8 3-6.1 1.2-1.2.2-3.4-1.1-3-1.2.4-5.3 1.1-6.8 2-1.5.9-7.3 4.3-8 5.7-.7 1.4-3.7 3.4-4.6 3.4-.9 0-1.1-2-1.8-3.2-.7-1.2-.9-8-.5-9.3.4-1.2 2.3-1.8 2.3-3s-3-1.8-4.3-1.4c-1.2.4-4.3 3-5.5 3.7-1.2.7-2-.5-2-1.2s-3.4.5-4.6 1.4c-1.2.9-3.9 5-5.7 5.3-1.8.4-2.3-1.1-2.3-2.3 0-1.2-.5-2.7-1.8-2.8-1.3-.1-2.8-2.1-2.8-2.1s1.6-.4 2.7-.5c1.1-.2 3.2-1.6 4.8-1.6 1.6 0 3.2-.7 3.7-1.4s-.4-3-1.6-4.8c-1.2-1.8-4.1-1.4-4.8-2.7-.7-1.2-3.6-2.3-4.8-3.2-1.2-.9-2.7-2.8-1.1-3 1.6-.2 5.7-3.4 6.9-4.8 1.2-1.4.2-3.2-2.3-3.9-2.5-.7-7.8-4.6-10.7-6.4-2.8-1.8-6.2-6.1-6.6-8.5-.4-2.5-1.4-5.9-2.5-5.9s-3.4 5.9-3.9 9.6c-.5 3.7-5.7 9.8-8.4 13-2.7 3.2-19.2 13.5-21.2 14.4-2 .9-.2 2.7 1.8 3.4 2 .7 5.7.4 7.7-.4 2-.7 2.5.5 2.7 1.6.2 1.1-4.3 5.5-6.5 7.5s-7.5 5.9-8.7 6.2c-1.2.4 1.4 3 2.8 3.7 1.4.7 6.8.4 8.4-1.2 1.6-1.6 3.4-2.7 3.9-1.4.5 1.2-2.8 3-4.6 5-1.8 2-6.6 6.2-8.5 7.7-1.9 1.5-3.6 2.7-2 3.6 1.6.9 6.8-.2 6.8-.2s-2.5 4.8-4.5 6.6c-2 1.8-5.9 4.1-9.6 9.4-3.7 5.3-10.7 18.5-10.7 18.5-2.5.7-10.1-.7-12.3-.7-2.2 0-9.6.9-13.2.4-3.6-.5-3.6-3.2-2-4.5 1.6-1.3 5.2-1.8 6.6-1.8 1.4 0 2.1 1.4 2.8.9.7-.5 1.8-2.7 1.2-3.4-.6-.7-5-1.2-6.6-1.6-1.6-.4-9.1-.9-9.1-1.6 0-.7 4.8-1.2 6.1-1.6 1.2-.4 1.1-2.1 0-3.7s-1.1-4.5-1.8-5-2.1 1.1-3.4 1.8c-1.2.7-4.3-1.8-5.5-2.3-1.2-.5-4.3-1.2-5.9-2.5-1.6-1.2-4.6-1.1-6.1-3.6-1.4-2.5-2.7-8.9-3.6-10.3-.9-1.4-2.5 1.8-3.7 4.5-1.2 2.7-2.5 6.1-3.7 9.8-1.2 3.7-3.7 5.9-5.3 6.4-1.6.5-2.5 1.6-2.7 3-.2 1.4-1.6 2.3-3.2 4.1-1.6 1.8-3.6 5-.4 5s4.8-2 6.1-2.7c1.2-.7 2.5-.4 2.5.4s-1.4 3-4.5 4.6c-3 1.6-7.3 1.8-8.5 1.8-1.2 0-1.1 2.7 1.8 3.9 2.8 1.2 4.6-.5 5.9-1.1 1.2-.5 3.6-.2 3.6-.2 0 3.7-2.3 7.7-4.6 8.7-2.3 1.1-5.2.4-5.2 1.8s-.9 3.7-2.5 3.7-1.4 3.2.4 3.2c1.8 0 3-3.4 4.1-3.4 1.1 0 3.2.5 3.2 2.5s-7.7 15.3-9.3 17.1c-1.6 1.8-7.5 1.6-10.5 1.4-3-.2-6.4-2.3-6.9-1.4-.5.9.7 6.6 1.4 10.7s0 6.9-3.4 10c-3.4 3-9.1 2.7-11.2 2.7-2.1 0-3.9 2.7-5.9 3.4-2 .7-1.6-.7-3.6-.4-2 .4-2.7 2.8-3.9 2.8-1.2 0-4.3.7-5.2 1.1-.9.4-2.5-1.1-2.5-1.1 3-2.1 6.1-2.5 7.7-3.6 1.6-1.1 2.3-1.8 2.3-3s-2.1-2.8-3.4-3.2c-1.2-.4-4.3.2-6.1.5-1.8.4-5.7 3.2-9.8 4.1-4.1.9-12.5 1.2-15.1 1.2-2.7 0-7.1-.5-7.1-.5s6.9-4.5 7.5-6.2c.5-1.8.9-4.1-.5-3.9-1.4.2-12.1 2-17.1 2.5-5 .5-16.9 2.5-22.4 2.5s-12.5-2.5-14-3.4c-1.5-.9-3.8-1.2-5.8-1.2s-8.2-1.1-11.4-2.3c-3.2-1.2-21.5-7.8-24.2-8-2.7-.2-3 .9-2.1 1.6.9.7 13 12.6 16.6 15.5 3.6 2.9 6.2 11.2 6.2 11.2-3 1.1-1.1 3 .4 4.3 1.5 1.3 1.6.2 2.8-1.1 1.2-1.3 2.7-.3 4.1 2 1.4 2.3-.9 3.7 0 5.2s.5 3 0 4.5c-.5 1.4-1.8 9.1-.5 9.6 1.2.5 4.6-.7 5.7-1.8 1.1-1.1 5.7-2.3 7.7-1.6 2 .7 4 5.3 4 7.8s-1.8 5.7-3.5 6.2-3.8-.5-4.4-1.4c-.5-.9-3.7-1.8-5.3-1.4-1.6.4-2 4.5-1.1 5.7.9 1.2 5 1.2 6.1 2 1.1.8-.5 2.7-1.6 3.2s-4.6-.4-6.4 2.1c-1.8 2.5-1.2 5-1.6 6.2-.4 1.2-3.4 1.1-2.7 2 .7.9 8.7.2 9.6-.4.9-.5 2-3.7 3.2-4.5 1.2-.7 4.8.7 5.5.4.7-.3 2-2.3 3.2-2.8 1.2-.5 5.5-3 7.8-4.1 2.3-1.1 8.5-.2 9.8 0 1.2.2 5.7 5.7 5.7 7.3 0 1.6-1.6 2.3-.9 3.2.7.9 2 3 .4 5.3s-4.1 3.2-5.5 3.4c-1.4.2-3-1.2-3-2.1 0-.9-.7-1.8-1.8-1.1s-4.8 2.8-6.9 3.9c-2.1 1.1-5 1.2-6.1.9-1.1-.4-.7-2.3-.7-2.3s-10.2 3.6-14.4 3.9c-4.3.4-13.9 1.1-13.9 1.1s8.7 2.8 12.3 4.5c.8.4 1.7 1 2.5 1.6 136.4-1.7 261-51.6 357.8-133.6-1.2 0-2.8-1-3.8 0-1.1 1.1-1.8 1.3-2.6 0s-2.1-2.2-3.1-1.4c-1.1.7-.7 2.5-1.6 3.6-.9 1.1-2.1 2.3-3.9 1.4-1.8-.9-3.7-1.4-5.5-2.1-1.8-.7-3.6-2.7-4.8-3.7-1.2-1.1-2.9-3.2-2.7-4.6.2-1.4 1.4-5.9 3.4-7.7 2-1.8 3.9-2.5 4.6-5.2.7-2.7 1.8-5.2 4.1-6.6 2.3-1.4 6.8-1.2 8.4-2.7 1.6-1.4 3.9-3.6 6.4-4.5 2.5-.9 5.9-4.3 8.7-5.3 2.8-1.1 7.5-2.3 7.7-1.6.2.7-1.8 3-2.8 5.5-1.1 2.5-3.2 9.1-3.4 11.1-.2 2.1 2.1.8 3.2 1.5s.9 1.8.2 3-.5 5.2 0 6.2c.3.5.1 1.5-.4 2.6 4.6-4.1 9.1-8.4 13.6-12.7-2.4.8-6.8-.3-7.5-1-.7-.7-1.6-4.8-.7-6.9.9-2.1 6.4-6.8 9.8-9.4 3.4-2.7 6.8-4.5 8.9-5.7 2.1-1.2 2.8-3.4 3.2-5 .7-2-3.8-3.4-4.9-3.9zm-436.5 150.2c-3.1 0-5.9.5-8.1 0-2.1-.5-5.8-7.1-10.1-7.3-4.3-.2-6.6-2.4-10-3.1-3.3-.7-12.3-2.1-15.2-2.1-2.9 0-5.5-2.6-7.6-2.6-2.1 0-5.9-.7-7.4-1.9-1.4-1.2-6.2-1.9-8.5-1.9-2.4 0-7.4-4.7-10.7-4.7-3.3 0-5.9.7-7.6 1.4-1.7.7-5.5 1.9-6.4 1.4-.9-.5-6.2-2.4-9.3-3.3-3.1-1-6.9-4-6.9-6.2s5-4.7 7.1-4.7c2.1 0 5.5 2.4 5.5 3.8s-1.7.9-1.7 2.6c0 1.7 1.9 3.6 4.3 3.6s4.5-.5 6.2-1.2c1.7-.7 2.8-2.4 4.3-2.4s2.8-2.1 2.8-3.3c0-1.2-1.7-1.7-2.8-1.9-1.2-.2-1.2-3.1-2.4-4.5s-4.5-1.9-7.1-2.4c-2.6-.5-5.7-4.5-7.8-4.5H722c-2.1 0-2.4-1.4-2.4-2.6 0-1.2-.7-4.3-2.8-6.9-2.1-2.6-5.7-4.3-8.1-4.5-2.4-.2-5.2-3.3-6.2-4.3-.9-1-6.4-1.4-8.1-1-1.7.5-2.1 2.6.5 4s3.3 3.1 2.6 3.3c-.7.2-6.3-.5-7.9-1.9-1.6-1.3-7.8 0-9.9 0-2.1 0-6.9-4.5-8.1-5.9-1.2-1.4-2.4-7.1-3.6-9.3-1.2-2.2-7.1-8.8-10.4-11.9-3.3-3.1-8.1-13.5-9-15.4-1-1.9-5.2-6.6-6.9-8.8-1.7-2.2-8.1-17.1-9.5-18.8-1.4-1.7-16.9-15-21.5-16.6-4.6-1.6-18.7-8.3-22.7-10.7-4-2.4-8.8-10-11.4-13.8-2.6-3.8-11.2-14-16.1-17.2-5-3.2-25.6-14.6-28.7-16.2-3.1-1.7-19.5-14-20.9-15.4-1.4-1.4-5.7-11.4-7.6-14-1.9-2.6-15.2-18.5-20.2-23.5s-23.7-19.5-25.9-20.2c-2.2-.7-9-.5-10.4-.9-1.4-.5-8.8-9-10.4-10.9-1.6-1.9-1.3-4-2.7-6.9-1.4-2.9-19.9-28-20.9-29-1-.9-.5-3.8-1.7-4.7-1.2-1-8.8-6.2-10.2-7.4-1.4-1.2-1.4-5.5-2.4-7.4-1-1.9-4.7-10.4-6.2-11.9s-4.5-.5-5.9 0c-1.4.5-4 4-4.7 4.9-.7.9-3.1.5-4.3.1-1.2-.5-2.6 2.4-3.6 3.8-.9 1.4-4 3.2-4.7 5.9-.4 1.5-.9 8.2 0 10.5.9 2.3 38.1 96.3 38.3 97.6.2 1.2 50.7 68 50.7 68s40.2 50.6 45.2 56.1 20.7 18.3 26.7 24.8 16.6 13.5 19.4 16.2c2.8 2.7 203.5 94.5 295.2 98.5l-1.6-25.3c-3.6-.9-7.7-5.2-10.7-5.2zm-261-312.5c.1 2 2.2 4.5 5.2 4.7 3 .2 14.8-.5 19.1-4.5 4.3-3.9 4.9-8.9 6.6-10.7 1.7-1.8 7.8-8.6 9.6-10.2 1.8-1.6 17.2-22.4 25.1-26.2 1.8-.9 4.8-.4 6.9-1.8 2.1-1.4 3.4-2.8 3.5-4.3.1-1.5-.1-5.6-.9-7-.8-1.4-5.5-8.2-7.7-8-2.2.2-5.2 6.3-6.6 7.8-1.4 1.5-3.4 3.9-5.1 4.1-1.7.2-2.2.6-3.7-1.7-1.5-2.4-6-16.3-10.9-23-8-10.9-9-21.7-14.7-22.7-5.7-1-9 2.3-11.9 2.9-7.7 1.6-11.1 3.8-14.2 5.7-5.4 3.1-21.1 29.5-21.4 31.4-.7 5-.7 10.4 0 12.3.8 1.8 2.2 3.9 4.7 5.5 4.9 3.2 24.6 24.7 26 25.9 1.4 1.2 4 3.9 3.1 6-3.3 7.9-12.8 10-12.7 13.8zm269.6-69.5c-2.1-.2-4.5 2.5-5.1 3.7-.6 1.2-4 7-4 7.9 0 .9-.2 3.4 0 3.6.2.2 3.7 5.3 4.5 5.4.8.1 4.9.5 5.7 0 .8-.5 2.6-1.2 4.2-5.1 1.6-3.9 1.3-5.5 1.2-7.1-.1-1.6-3-8-6.5-8.4zm114.5 27.4c-.3-.5-2.5-1.1-3.2-.5-.6.6-4.4 3.6-4.9 3.8-.5.2-4.2.8-6.3.8-2.1 0-3.2-.5-4.5-.5-1.3 0-5.7.5-6.6 4.6-.9 4.1 1 10.8 1.4 12.1.4 1.4 2 3.9 4.4 4.5 2.4.6 6 1.5 8.4 2.4 4.1 1.5 8.9 5.7 8.2 7.9-.3.9-.7 3.4-1.1 4.2-.4.9-.7 3.3-.8 4.2-.1.9.1 2.2 1.2 3.1 2.5 2.1 10.1-.9 10.9-8.4.1-.8-2-4.1-2-6.3-.1-5.4-.6-13.3-1-15-.3-1.4-4.1-8.5-4.1-10.3 0-1.8.7-5.5 0-6.6zm166.9-385.8c-.9 2.2-.8 3.4.6 4 1.4.5 11.6-2.8 13.7-3.9 2.1-1.1 18.5-27.7 18.5-27.7l5.9-29.4c-5.3-1.2-7.1 3.8-7.9 5.7-.8 1.9-3.7 4.7-5.8 5.6-2.1 1-3.8-.2-5.2-.8-1.2-1-2-2.9-3.2-3.2-1.2-.3-7 2.6-8.2 3.4-1.4.9-3.8 3.3-4.3 6.2-.5 2.9.2 3.7.3 8.6.1 4.9-2.5 5.8-3 7.9-.5 2.1 4 11.6 3.5 13.9-.4 2.5-3.6 6.5-4.9 9.7zm66.3-30.8c.6-1.8-3.1-5.1-3.2-7.3-.1-2.2.3-9.8-2.1-11.7-2.7-2.1-11.1-8.3-13.4-8.2l-6.8 28.1s4.5-.2 5.6-.2c1.1 0 1.2-1.4 4.2-1 3 .4 5.7 1.6 8.9 1.6 3.2.1 6.3.5 6.8-1.3zm19.5 8.8c1.8-1.4 2.6-1.4 3.3-4 .6-2.5 1.1-7-1.6-7.9-2.7-.9-4 3.2-6.4 4-2.7.9-9.6 1.4-9.6 5 0 1.2 1 3 5.3 3.4 4.2.4 7.3.9 9-.5zm-4-43.7c-1.7.5-4.4 0-6-.8-1.6-.8-4.2-3-7.5-2.8-3.4.2-3.5 5.6-3.5 5.6l23.2 12.6c6.5.5 10.8-1.5 11.4-2.6 1.1-2 2.8-4.5 3.3-6.5.4-1.6-.2-2.4-.6-3-.3-.6-3.7-.5-7-.4-1.6 0-3.3-1.2-5.3-2.1-2.9-1.2-4.3-1.2-8 0zm-17.9 66.5c1.5.6 5.5.5 8.5-.5 3.1-1 4-1.3 4-2.5s1.1-8.2-5-8.9c-1.8-.2-3.3 1-4.2 2.4-.9 1.4-3.5 5.4-3.9 6-.6 1.1-.9 2.9.6 3.5zm207.3 275.6c-.2-2.1-2.2-4-4.3-3.6-1.4.3-2.4 1.5-3.7 2.2-3.7 1.9-8.2-2-8.4-6.1-.2-4.1 2.5-7.8 5.4-10.7 1.1-1.1 2.7-4.4 3.4-5.8 1.8-4-1.9-6.3-1.5-10.6.3-3.6 2.8-6.5 4.7-9.5 1.9-3 2-6.6.9-10-1-3-4.1-2.5-6.5-2.9.3-6.1-3.9-10-6.6-17.1-1-2.7 2.1-9.2 1.3-12-1-3.7-3.6-1.7-3.9-5.3 0 0-1.4-20.1-3.4-21.5-2-1.4-5.6.1-5.1-3.2.4-3.3 4.6-7.2 5.5-8.6.9-1.4 7.2-12.7 7.6-18.3.4-5.6.4-11.6-.7-13.7-1.2-2.1-25.4-56.5-25.4-56.5s.5-3.9.6-6.2c.1-2.3-4.1-13.5-5.3-16.4-1.3-2.9-9-17-12-19.5s-4.5-3.4-4.3-4.8c.2-1.4.4-2.2.5-3.5.1-1.4-2.7-5.8-5.9-8.5-3.7-1.7-5.3-2.2-7.8-1.5-3.1.9-4.9 2.8-6.3 2.7-2.5-.1-4.7-1.2-7.2-1.3-2.5-.1-22.1 5.7-23.3 6.3-1.1.5-5.2 6.1-6 6.9-.9.8-5.8 4.7-7.2 4.8-1.4.2-4.9-5-5.8-5-.9 0-2.9-.6-5.6 0-2.7.6-9 4.1-9.5 5.7-.5 1.7 1.6 8 1.6 9s0 1.6-1.3 2.1-4.6.8-5.8 1.6c-1.2.7-15.5 9.3-15.9 13.2-.4 3.8.1 19.2 1.4 22.1 1.3 2.9 2.7 7.5 3 8.9.3 1.4 2.6 3.5 4.3 4.3 1.7.8 6.4 4 6.5 8.9.1 4.8-8.1 24.9-8.1 25.4s.5 1.7 1.2 2.1c.6.4 14.2.7 15 1.9.7 1.2 5.3 6.4 5.6 7.9.2 1.5-5.4 9.7-5.9 10.4-.3.4-2.5 1.3-4.6 1.8-1.8-.3-3.4-1.3-4.4-2.5-.5-1.2 1.2-3 .3-4.2-.9-1.2-4.5-4.8-4.9-4.8-.4 0-1.5-.1-2.2 1-.7 1.1-7.6 11.2-7.1 12.1 1 2 3.5 6.7 3.5 8.6 0 1.9.8 7.1 1.5 8.5.6 1.4 3.4 19.2 4.6 20.4 1.2 1.2 3.4 2.6 3.5 3.4.1.8-.6 3.9-3.2 5.8-2.6 1.8-6.6 4.6-9.2 3.9-2.6-.6-7.9-8.5-8.6-10.5-.5-1.5 6.8-12.6 6.3-14.8-.5-2.2-6.6-12-7.8-11.8-1.2.2-2.2 4.6-2.2 5.7 0 1.1.4 6.3-.3 7.2-.6.9-2.6 2.9-3.3 2.6-.7-.3-9.1-14.8-9-16.1.1-1.3.4-4.8-1.5-8.2-1.9-3.4-11-15.3-11.6-17.8-.6-2.5-1.4-8.5-3-9.8-1.6-1.3-10.4-7.3-12.3-10.2-1.9-2.9-22.5-33.2-26.6-36.4-4.2-3.2-13.1-8.1-20.1-9.4 0 0-10.4-3.6-13.1-5.6-2.7-2-13.2-17.5-16.2-20.5-3-2.9-37.6-42.5-39.2-43.8-1.6-1.4-7.6-9.1-7.8-10.4-.2-1.3 3.2-14.9 3.3-16.5.1-1.6-4.7-10.2-6.5-10.2-1.8 0-6.2 9.2-6.5 10.2-.3.9 1.5 6.7-.3 7.8-1.8 1.1-9.7 1.2-14.3 4.6-4.6 3.4-5.8 5.2-4.6 7.3 3.1 5.5 6 1.1 9.3 6.6 2.9 4.8 17.7 24.1 20.2 29.6 2.6 5.5 5.1 9.2 9.2 14.1s23.1 37.3 22.5 40.3c-.6 3 1.5 24.2 1.9 25.5.4 1.3 5.7 22.5 7.3 23.8 1.6 1.3 9.4 20.6 10.6 22.4 1.2 1.7 27.2 38.8 30.2 40.9 3 2.1 21.3 42.1 22.5 44.1 1.2 2 4.6 5.8 9.2 7.8 4.6 1.9 6.5 4.2 7.5 7.7s6.8 27 8.1 30.1c1.4 3.1 12.9 26.1 12.9 26.1l26.6-21.3c2-1.5 4.4-4 5.4-6s.9-5 4.4-7.5c3.5-2.5 14-10.2 15.5-11.4 1.5-1.2 2.8-1.8 3.3-4.5.5-2.6.9-7.2-1.5-10.7-2.4-3.5-7.7-7.9-9-10.5-1.3-2.6-3-6.7-3-9s.2-6.4 1.7-6.3c1.5.1 11 4.4 11.6 6.3.5 1.9 4.1 18.5 4.7 19.4.6.9 9.4 7.6 8.3 9.3-1.1 1.7-4 4.2-3.9 7 .1 2.8.1 5.4 1.4 7.5 1.3 2.1 3.2 4.7 9.1 2.3 5.7-4.5 14.3 0 15.2 5.3.7 4.9-2.9 9.2-6 13.1-.6.7-1.2 1.6-.8 2.5.3.7 1 1 1.7 1.2 7 2.6 14.1 4 21.2 1.9 2.8-.8 6.7-5.2 8.4-2.8.7 1 1.4 4.5 2.2 5.5 1.5 1.8 4.3 1.1 6.6 1.5 4.6.8 8.3 6.3 12.8 4.9-.4-2.4 2-4.8 4.4-4.5 2.4.3 4 3.4 2.9 5.6 8.1 2.9 16.5-4 25.1-3.9 1.2 0 2.5.2 3.5-.4 1.5-.8 2-2.5 2.8-4 4.4-8.5 17.2-8.1 23.7-15.1 1-2 2.1-4.1 1.9-6.1zM480.2 544l16.4.9 18.9-14.4 20.2 8.9 32-21.7s8.5-1.4 12.8-1.6c4.3-.2 15.6 0 15.6 0l26-29.1 38.1 1.2 7.8-9.3 22-17.6s21.3 7 30.4 10.7l57.8-29.5 6.1-40.7H759l-12.8-1.7s-4.3 0-5-1.4c-.7-1.4 1.8-4.2 2.5-5 .7-.8 1.8-1.1 1.5-2.8-.3-1.7-12.6-9.7-12.6-9.7-.8-.9-2.8-2.7.2-4.6 3-2 15.9-10.3 15.9-10.3L731 353.4l-39.4 12.3-68.5 22.7S484 485.7 469.2 516.2l-5.5 9.2 22.8 3.4z"/><path d="M869.8 304.4c-312.2 0-565.3 253.1-565.3 565.3 0 312.2 253.1 565.3 565.3 565.3 312.2 0 565.3-253.1 565.3-565.3 0-312.2-253.1-565.3-565.3-565.3zm254.7 1033.4c-1.1-.1-2.1 0-3.2-.1-39.6-3.6-87.3-33.1-142.7-87.8 44.4-26.8 88.2-58.3 130.4-93.6l.6-.5c42.4-35.6 81.2-73.6 115.5-112.9 44.3 64 65.1 116.2 61.8 155.9-.1.9-.3 1.8-.4 2.7-44.2 55.5-99.3 102-162 136.3zm-305.4 62.5c-13.3-4-27.2-9.1-41.5-15.7-20.7-9.6-40.7-21.5-59.8-35.5 40-5.2 82.8-16.3 127.4-33.3 39.5-15 79.5-34.6 119.2-57.7 51.2 51 96.7 81.8 136.2 92-69.9 33.7-148.2 52.6-230.8 52.6-17.1.1-34-.8-50.7-2.4zm-435.5-312.5c-.7-1.9-1.3-3.9-1.9-5.9 7.7 5.8 15.6 10.8 23.3 14.8 35.7 18.8 79.2 26.9 128.7 24.3 8.3 21.1 17.4 41.9 27.8 62.2 33.2 62.6 71.7 113.6 115 152.8-22.2.6-43.3-.8-62.7-4.6-5.9-1.2-11.5-2.6-17-4.2-93.4-55.8-168.2-139.5-213.2-239.4zm-46.9-218.1c0-33.8 3.3-66.8 9.3-98.9 4.1 15.7 10.9 29.2 20.1 40.2-10 36.2-17.2 76.2-19.8 120.7-.7 12.1-.8 23.8-.6 35.4-5.8-31.6-9-64.1-9-97.4zm39.6-201.2c24-38 54.6-68.9 91.5-92.1-.3 10.2 1.7 19.4 6.3 27.1-34.4 43.7-75.7 104.7-102.2 188-10.7-17.5-15.6-41-14.3-69 5.3-18.5 11.5-36.5 18.7-54zm211.5-250.8c31.1-19.5 64.3-35.9 99.3-48.7-21.3 15.2-40.5 33.1-57.4 53.6-14.6 1.5-30.8 6.3-47.4 14 .9-5.8 2.6-12.2 5.5-18.9zm225.4-78c28 3.6 50.4 12.5 65.9 26.2-86.6 11.6-153.8 41.6-202.9 68-6.8-5.9-15.5-9.4-25.6-10.9 29.4-32.4 65.3-57.1 107-74.2 18.2-4 36.8-7.1 55.6-9.1zm554.2 339.4c.6 6.3 1.1 12.7 1.2 19.4.3 19.5-2 40.2-6.3 61.5-31.1-49.3-74.6-96-130.4-139.5-18.1-13.7-37-26.2-56.3-38.1 11.2-48.3 10.8-92.6-1.5-131-2.7-8.3-6.2-16.9-10.6-25.5 1.7.9 3.5 1.8 5.2 2.8 89.4 60.8 159.3 148.1 198.7 250.4zM499 854.3c12.8-1.2 26.1-3.4 39.8-6.6 37.6-8.9 77.3-25.3 117-47.7 31.8 68.4 72.3 144.7 123.6 223-82.5 46.9-164.3 75-235.3 81.1-33.2-88.7-44.4-174.9-45.1-249.8zm28.2 250.7c-43.7 1.6-82.8-5.7-114.8-22.5-14.8-7.8-27.7-17.7-38.9-29.3-8.9-36.5-13.7-76.8-11-120.6 2.3-39.6 8.3-75.8 16.9-108.7 26.2 21.7 61.6 32.3 103.4 31.2.8 87.8 15.6 171.5 44.4 249.9zm311-458c29-35.2 52.1-71.5 67.3-107 5.6-13 10-25.7 13.4-38.1 73.7 13.6 156.6 39.7 238.1 87.8-18.3 68.9-60.2 144.6-120.7 217.7-68.2-64-136.3-117.2-198.1-160.4zm187.7 172.8c-31.6 36.7-67.9 72.6-108.2 106.4l-.5.4c-40.4 33.9-82.1 63.4-123.7 88.2-51.3-78.4-91.8-154.7-123.5-223 28.5-17.1 56.8-37.2 84-60.1 27.3-22.9 52-47.2 73.8-72.3 61.7 43.1 129.8 96.2 198.1 160.4zM922.6 486.1c8.3-40.9 4-77.7-12.8-107.2 33.9-2.7 70.5-2.3 110 2.3 43.6 5 82.4 16.7 116.8 31.8 9.5 13 17 27.5 22.1 43.4 11.1 34.4 11.4 74.2 2.3 116.9-72.2-42-152.1-71.1-238.4-87.2zm-16-3c-97.8-16.2-177.8-11-216.5-6.5 1.2-11.1-.1-21.2-4.1-29.7 49.5-26.4 117.8-56.3 205.7-66.2 18.1 27 23.1 62.3 14.9 102.4zm-219.9 10.2c31.5-4 113.7-10.9 216 5.8-3.1 11.2-6.9 22.7-12 34.5-14.8 34.5-37.4 69.8-65.8 104.1-64.2-44-120.6-76.7-162.1-98.9 11.2-15.2 19.4-30.8 23.9-45.5zm127.8 156.9c-21 23.9-44.7 47.3-70.9 69.2-26.2 21.9-53.2 41.3-80.5 57.8-32.2-71.1-54.4-132.3-68.8-176.5 10.5-6.2 21-13.6 31.1-22.1 10.1-8.5 19.2-17.5 27.2-26.8 41.1 21.8 97.5 54.3 161.9 98.4zM649.1 785.3c-38.7 22-77.4 38.1-113.9 46.7-12.5 3-24.5 4.7-36.1 5.8 1.3-103.7 22.4-183.4 31.8-213.7 15.2-1.9 32-7.2 49.1-15.6 14.5 44.7 36.9 105.9 69.1 176.8zm-6.6 315.5c48.1-14.6 97.3-36.4 146-64.3 13.9 20.8 28.3 41.7 43.8 62.6 42.9 59.4 83.1 108.4 120.4 147.2-37.8 21.7-75.7 40.2-113.2 54.4-49.6 18.9-96.7 30.2-139.9 34-46.9-39.2-88.4-92.3-123.8-159-9.6-18.7-17.9-37.4-25.4-56 28.9-2.8 59.7-9 92.1-18.9zm202.8-11.2c-15.1-20.5-29.3-41-42.9-61.4 42.4-25.3 84.4-55 125.1-89.2l.5-.5c40.6-34.1 77.2-70.3 109.5-107.6 17.7 17 35.5 34.5 53 53 51.9 53.5 93.5 101.9 125 145.3-34.4 39.8-73.5 78.3-116.3 114.2l-.6.5c-42.6 35.7-86.9 67.3-131.7 94.2-37.3-38.5-77.8-88-121.6-148.5zm256.9-216.8c-17.9-18.8-36-36.7-54.1-54 36-43.2 65.9-87.8 88.7-132.7 15.3-30.2 26.8-59.4 34.7-87.4 17 10.6 33.9 22 50.6 34.7 59.5 46.4 104.5 96.3 134.9 149.2-11.3 42.2-30.8 87.1-58.3 133.1-20.4 34.1-44.9 68-72.6 101.1-31.7-43.5-73-91.5-123.9-144zm-45.3-502.1c-11.4-2.3-23.1-4.3-35.3-5.7-44.2-5.2-84.9-5-122.3-1.4-9.2-11-21.3-20-36-26.8 2.1 0 4.2-.2 6.4-.2 65.9.1 129 12.2 187.2 34.1zm-388.6 77.9c19.1 22.8-5.8 77.7-53.3 117.6-47.5 39.8-105.9 54.8-125 32-19.1-22.8 5.8-77.7 53.3-117.6 47.5-39.8 105.9-54.7 125-32zm-183 166.8c7.7 5.5 17.4 8.5 28.5 9.2-11.1 37.3-30.2 115.2-31.2 214.3-40.9 1-74.8-10-98.3-32.4 25.1-84.9 66.3-146.9 101-191.1zm156.2 735.9c16.9 1.4 34.5 1.4 52.9.1 18.1 14.6 37 27.2 56.7 37.9-38.2-8.7-75-21.5-109.6-38zm594.2-321c29.3-34.8 55.3-70.5 76.8-106.4 24.8-41.4 43.3-82.1 55.5-120.9 10.6 21.4 18.9 43.2 24.8 65.5 4 15 6.6 29.4 8.2 43-7.8 99.7-43 191.8-98.2 268.6-3.4-40.7-25.8-90.8-67.1-149.8zm166.4-186.9c-7.1-21.4-16.4-42.5-27.8-63.1 4.5-18 7.5-35.6 9.1-52.5 10.3 37.1 16.8 75.7 18.7 115.6zM566.8 431.5c-.9 5.1-1.4 9.8-1.5 13.9-10.9 6.4-21.9 14.1-32.4 22.9-10.5 8.9-20 18.3-28.2 27.9-4-.6-8.7-.9-13.9-.9 23.3-23.5 48.7-44.9 76-63.8zm-93.2 82.1c7-1.7 13.7-2.3 19.5-2.2-10.5 15-18 30.1-22 44.2-22.8 13-43.5 28.5-62 46.6 18.4-31.7 40-61.5 64.5-88.6z"/></g></svg>